<svg width="192" height="37" viewBox="0 0 398 50" fill="none" xmlns="http://www.w3.org/2000/svg">
<path d="M80.9687 40H74.3932L74.4346 35.1462H80.9687C82.6005 35.1462 83.9764 34.7797 85.0965 34.0468C86.2166 33.3 87.0602 32.2145 87.6272 30.7901C88.208 29.3658 88.4984 27.6441 88.4984 25.6251V24.1524C88.4984 22.6036 88.3324 21.2415 88.0005 20.066C87.6825 18.8906 87.2054 17.9019 86.5693 17.0998C85.9331 16.2977 85.1518 15.6962 84.2253 15.2952C83.2988 14.8803 82.234 14.6729 81.0309 14.6729H74.2687V9.79829H81.0309C83.0499 9.79829 84.896 10.144 86.5693 10.8354C88.2564 11.513 89.7153 12.488 90.946 13.7602C92.1768 15.0324 93.124 16.5536 93.7878 18.3236C94.4654 20.0799 94.8042 22.0366 94.8042 24.1939V25.6251C94.8042 27.7686 94.4654 29.7253 93.7878 31.4954C93.124 33.2655 92.1768 34.7866 90.946 36.0588C89.7291 37.3172 88.2702 38.2922 86.5693 38.9836C84.8822 39.6612 83.0153 40 80.9687 40ZM77.9195 9.79829V40H71.6966V9.79829H77.9195ZM109.283 40.4149C107.54 40.4149 105.978 40.1383 104.595 39.5851C103.212 39.0182 102.037 38.2369 101.069 37.2412C100.114 36.2455 99.3815 35.0908 98.8698 33.7771C98.3582 32.4496 98.1023 31.0391 98.1023 29.5456V28.7158C98.1023 27.0149 98.3443 25.4592 98.8283 24.0487C99.3123 22.6382 100.004 21.4143 100.903 20.3772C101.815 19.34 102.922 18.5449 104.222 17.9917C105.521 17.4248 106.987 17.1413 108.619 17.1413C110.209 17.1413 111.62 17.404 112.851 17.9295C114.081 18.455 115.112 19.2018 115.941 20.1698C116.785 21.1378 117.421 22.2994 117.85 23.6546C118.278 24.9959 118.493 26.4894 118.493 28.135V30.6242H100.654V26.6416H112.622V26.1852C112.622 25.3555 112.47 24.6157 112.166 23.9657C111.876 23.3019 111.433 22.7765 110.838 22.3892C110.244 22.002 109.483 21.8084 108.557 21.8084C107.769 21.8084 107.091 21.9813 106.524 22.327C105.957 22.6727 105.494 23.1567 105.134 23.779C104.788 24.4013 104.526 25.1342 104.346 25.9778C104.18 26.8075 104.097 27.7202 104.097 28.7158V29.5456C104.097 30.4444 104.222 31.2741 104.47 32.0347C104.733 32.7953 105.1 33.4521 105.57 34.0053C106.054 34.5584 106.635 34.9871 107.312 35.2914C108.004 35.5956 108.785 35.7477 109.656 35.7477C110.735 35.7477 111.737 35.5403 112.664 35.1254C113.604 34.6967 114.413 34.0537 115.091 33.1963L117.995 36.3492C117.525 37.0268 116.882 37.6768 116.066 38.2991C115.264 38.9214 114.296 39.433 113.162 39.8341C112.028 40.2213 110.735 40.4149 109.283 40.4149ZM128.2 8.13885V40H122.206V8.13885H128.2ZM139.443 17.5561V40H133.448V17.5561H139.443ZM133.075 11.7066C133.075 10.8354 133.379 10.1163 133.988 9.54937C134.596 8.9824 135.412 8.69891 136.435 8.69891C137.445 8.69891 138.254 8.9824 138.862 9.54937C139.484 10.1163 139.796 10.8354 139.796 11.7066C139.796 12.5778 139.484 13.2969 138.862 13.8639C138.254 14.4309 137.445 14.7144 136.435 14.7144C135.412 14.7144 134.596 14.4309 133.988 13.8639C133.379 13.2969 133.075 12.5778 133.075 11.7066ZM152.013 35.644L156.992 17.5561H163.235L155.664 40H151.889L152.013 35.644ZM148.591 17.5561L153.59 35.6647L153.693 40H149.897L142.326 17.5561H148.591ZM175.951 40.4149C174.208 40.4149 172.646 40.1383 171.263 39.5851C169.88 39.0182 168.704 38.2369 167.736 37.2412C166.782 36.2455 166.049 35.0908 165.538 33.7771C165.026 32.4496 164.77 31.0391 164.77 29.5456V28.7158C164.77 27.0149 165.012 25.4592 165.496 24.0487C165.98 22.6382 166.672 21.4143 167.57 20.3772C168.483 19.34 169.589 18.5449 170.889 17.9917C172.189 17.4248 173.655 17.1413 175.287 17.1413C176.877 17.1413 178.288 17.404 179.518 17.9295C180.749 18.455 181.779 19.2018 182.609 20.1698C183.453 21.1378 184.089 22.2994 184.517 23.6546C184.946 24.9959 185.16 26.4894 185.16 28.135V30.6242H167.322V26.6416H179.29V26.1852C179.29 25.3555 179.138 24.6157 178.834 23.9657C178.543 23.3019 178.101 22.7765 177.506 22.3892C176.912 22.002 176.151 21.8084 175.225 21.8084C174.436 21.8084 173.759 21.9813 173.192 22.327C172.625 22.6727 172.162 23.1567 171.802 23.779C171.456 24.4013 171.194 25.1342 171.014 25.9778C170.848 26.8075 170.765 27.7202 170.765 28.7158V29.5456C170.765 30.4444 170.889 31.2741 171.138 32.0347C171.401 32.7953 171.767 33.4521 172.238 34.0053C172.722 34.5584 173.302 34.9871 173.98 35.2914C174.671 35.5956 175.453 35.7477 176.324 35.7477C177.403 35.7477 178.405 35.5403 179.332 35.1254C180.272 34.6967 181.081 34.0537 181.759 33.1963L184.663 36.3492C184.192 37.0268 183.549 37.6768 182.734 38.2991C181.931 38.9214 180.963 39.433 179.829 39.8341C178.696 40.2213 177.403 40.4149 175.951 40.4149ZM194.536 22.4515V40H188.562V17.5561H194.184L194.536 22.4515ZM201.298 17.4109L201.195 22.9493C200.904 22.9078 200.552 22.8733 200.137 22.8456C199.736 22.8041 199.369 22.7834 199.037 22.7834C198.194 22.7834 197.461 22.894 196.839 23.1153C196.23 23.3227 195.719 23.6338 195.304 24.0487C194.903 24.4635 194.598 24.9683 194.391 25.5629C194.197 26.1575 194.087 26.8352 194.059 27.5957L192.856 27.2224C192.856 25.7703 193.001 24.4359 193.292 23.219C193.582 21.9882 194.004 20.9165 194.557 20.0038C195.124 19.0911 195.815 18.3859 196.631 17.888C197.447 17.3902 198.381 17.1413 199.432 17.1413C199.763 17.1413 200.102 17.1689 200.448 17.2243C200.794 17.2657 201.077 17.328 201.298 17.4109ZM211.151 37.4694L217.105 17.5561H223.514L214.491 43.3811C214.297 43.9481 214.035 44.5565 213.703 45.2065C213.385 45.8564 212.949 46.4718 212.396 47.0526C211.857 47.6472 211.172 48.1312 210.342 48.5046C209.526 48.878 208.524 49.0647 207.335 49.0647C206.768 49.0647 206.304 49.0301 205.945 48.9609C205.585 48.8918 205.157 48.795 204.659 48.6705V44.2938C204.811 44.2938 204.97 44.2938 205.136 44.2938C205.302 44.3076 205.461 44.3145 205.613 44.3145C206.401 44.3145 207.044 44.2246 207.542 44.0449C208.04 43.8651 208.441 43.5885 208.745 43.2152C209.049 42.8556 209.291 42.3854 209.471 41.8046L211.151 37.4694ZM208.662 17.5561L213.537 33.8186L214.387 40.1452L210.322 40.5808L202.253 17.5561H208.662ZM246.808 40.4149C245.066 40.4149 243.503 40.1383 242.121 39.5851C240.738 39.0182 239.562 38.2369 238.594 37.2412C237.64 36.2455 236.907 35.0908 236.395 33.7771C235.884 32.4496 235.628 31.0391 235.628 29.5456V28.7158C235.628 27.0149 235.87 25.4592 236.354 24.0487C236.838 22.6382 237.529 21.4143 238.428 20.3772C239.341 19.34 240.447 18.5449 241.747 17.9917C243.047 17.4248 244.513 17.1413 246.145 17.1413C247.735 17.1413 249.145 17.404 250.376 17.9295C251.607 18.455 252.637 19.2018 253.467 20.1698C254.31 21.1378 254.947 22.2994 255.375 23.6546C255.804 24.9959 256.018 26.4894 256.018 28.135V30.6242H238.179V26.6416H250.148V26.1852C250.148 25.3555 249.996 24.6157 249.692 23.9657C249.401 23.3019 248.959 22.7765 248.364 22.3892C247.77 22.002 247.009 21.8084 246.082 21.8084C245.294 21.8084 244.617 21.9813 244.05 22.327C243.483 22.6727 243.019 23.1567 242.66 23.779C242.314 24.4013 242.051 25.1342 241.872 25.9778C241.706 26.8075 241.623 27.7202 241.623 28.7158V29.5456C241.623 30.4444 241.747 31.2741 241.996 32.0347C242.259 32.7953 242.625 33.4521 243.095 34.0053C243.579 34.5584 244.16 34.9871 244.838 35.2914C245.529 35.5956 246.311 35.7477 247.182 35.7477C248.26 35.7477 249.263 35.5403 250.19 35.1254C251.13 34.6967 251.939 34.0537 252.616 33.1963L255.52 36.3492C255.05 37.0268 254.407 37.6768 253.591 38.2991C252.789 38.9214 251.821 39.433 250.687 39.8341C249.553 40.2213 248.26 40.4149 246.808 40.4149ZM264.232 17.5561L267.945 24.3806L271.762 17.5561H278.13L271.783 28.5292L278.421 40H272.032L267.987 32.7815L263.942 40H257.553L264.191 28.5292L257.844 17.5561H264.232ZM287.008 21.8707V48.6291H281.034V17.5561H286.573L287.008 21.8707ZM301.217 28.5292V28.9648C301.217 30.5965 301.024 32.1108 300.636 33.5075C300.263 34.9042 299.71 36.1211 298.977 37.1582C298.244 38.1815 297.331 38.9836 296.239 39.5644C295.16 40.1314 293.916 40.4149 292.505 40.4149C291.136 40.4149 289.947 40.1383 288.937 39.5851C287.928 39.032 287.077 38.2576 286.386 37.2619C285.708 36.2524 285.162 35.0839 284.747 33.7564C284.332 32.4288 284.014 31.0045 283.793 29.4833V28.3425C284.014 26.7107 284.332 25.2172 284.747 23.862C285.162 22.493 285.708 21.3106 286.386 20.315C287.077 19.3055 287.921 18.5241 288.917 17.971C289.926 17.4179 291.108 17.1413 292.464 17.1413C293.888 17.1413 295.139 17.4109 296.218 17.9503C297.311 18.4896 298.223 19.264 298.956 20.2735C299.703 21.283 300.263 22.486 300.636 23.8827C301.024 25.2794 301.217 26.8282 301.217 28.5292ZM295.222 28.9648V28.5292C295.222 27.575 295.139 26.6969 294.974 25.8948C294.821 25.0789 294.572 24.3667 294.227 23.7583C293.895 23.1498 293.452 22.6796 292.899 22.3478C292.36 22.002 291.703 21.8292 290.929 21.8292C290.113 21.8292 289.414 21.9606 288.834 22.2233C288.267 22.486 287.803 22.8663 287.444 23.3642C287.084 23.862 286.815 24.4566 286.635 25.1481C286.455 25.8395 286.344 26.6208 286.303 27.492V30.3753C286.372 31.3986 286.566 32.3182 286.884 33.1341C287.202 33.9361 287.693 34.5723 288.357 35.0424C289.02 35.5126 289.892 35.7477 290.97 35.7477C291.758 35.7477 292.422 35.5748 292.961 35.2291C293.501 34.8696 293.936 34.3787 294.268 33.7564C294.614 33.1341 294.856 32.415 294.994 31.5991C295.146 30.7832 295.222 29.9051 295.222 28.9648ZM311.236 8.13885V40H305.241V8.13885H311.236ZM315.219 29.0062V28.5706C315.219 26.925 315.454 25.4108 315.924 24.0279C316.394 22.6312 317.079 21.4212 317.977 20.3979C318.876 19.3746 319.983 18.5795 321.296 18.0125C322.61 17.4317 324.117 17.1413 325.818 17.1413C327.519 17.1413 329.033 17.4317 330.361 18.0125C331.689 18.5795 332.802 19.3746 333.701 20.3979C334.613 21.4212 335.305 22.6312 335.775 24.0279C336.245 25.4108 336.48 26.925 336.48 28.5706V29.0062C336.48 30.638 336.245 32.1523 335.775 33.5489C335.305 34.9318 334.613 36.1418 333.701 37.179C332.802 38.2023 331.695 38.9974 330.382 39.5644C329.068 40.1314 327.561 40.4149 325.86 40.4149C324.159 40.4149 322.645 40.1314 321.317 39.5644C320.003 38.9974 318.89 38.2023 317.977 37.179C317.079 36.1418 316.394 34.9318 315.924 33.5489C315.454 32.1523 315.219 30.638 315.219 29.0062ZM321.193 28.5706V29.0062C321.193 29.9466 321.276 30.8247 321.442 31.6406C321.607 32.4565 321.87 33.1756 322.23 33.7979C322.603 34.4063 323.087 34.8834 323.682 35.2291C324.276 35.5748 325.002 35.7477 325.86 35.7477C326.689 35.7477 327.402 35.5748 327.996 35.2291C328.591 34.8834 329.068 34.4063 329.428 33.7979C329.787 33.1756 330.05 32.4565 330.216 31.6406C330.396 30.8247 330.485 29.9466 330.485 29.0062V28.5706C330.485 27.658 330.396 26.8006 330.216 25.9985C330.05 25.1826 329.78 24.4635 329.407 23.8413C329.047 23.2051 328.57 22.7073 327.976 22.3478C327.381 21.9882 326.662 21.8084 325.818 21.8084C324.975 21.8084 324.256 21.9882 323.661 22.3478C323.08 22.7073 322.603 23.2051 322.23 23.8413C321.87 24.4635 321.607 25.1826 321.442 25.9985C321.276 26.8006 321.193 27.658 321.193 28.5706ZM346.126 22.4515V40H340.152V17.5561H345.773L346.126 22.4515ZM352.888 17.4109L352.784 22.9493C352.494 22.9078 352.141 22.8733 351.726 22.8456C351.325 22.8041 350.959 22.7834 350.627 22.7834C349.783 22.7834 349.05 22.894 348.428 23.1153C347.82 23.3227 347.308 23.6338 346.893 24.0487C346.492 24.4635 346.188 24.9683 345.98 25.5629C345.787 26.1575 345.676 26.8352 345.649 27.5957L344.445 27.2224C344.445 25.7703 344.591 24.4359 344.881 23.219C345.171 21.9882 345.593 20.9165 346.146 20.0038C346.713 19.0911 347.405 18.3859 348.221 17.888C349.037 17.3902 349.97 17.1413 351.021 17.1413C351.353 17.1413 351.692 17.1689 352.037 17.2243C352.383 17.2657 352.667 17.328 352.888 17.4109ZM365.624 40.4149C363.882 40.4149 362.319 40.1383 360.936 39.5851C359.553 39.0182 358.378 38.2369 357.41 37.2412C356.456 36.2455 355.723 35.0908 355.211 33.7771C354.699 32.4496 354.444 31.0391 354.444 29.5456V28.7158C354.444 27.0149 354.686 25.4592 355.17 24.0487C355.654 22.6382 356.345 21.4143 357.244 20.3772C358.156 19.34 359.263 18.5449 360.563 17.9917C361.863 17.4248 363.328 17.1413 364.96 17.1413C366.55 17.1413 367.961 17.404 369.192 17.9295C370.422 18.455 371.453 19.2018 372.282 20.1698C373.126 21.1378 373.762 22.2994 374.191 23.6546C374.619 24.9959 374.834 26.4894 374.834 28.135V30.6242H356.995V26.6416H368.964V26.1852C368.964 25.3555 368.811 24.6157 368.507 23.9657C368.217 23.3019 367.774 22.7765 367.18 22.3892C366.585 22.002 365.824 21.8084 364.898 21.8084C364.11 21.8084 363.432 21.9813 362.865 22.327C362.298 22.6727 361.835 23.1567 361.475 23.779C361.13 24.4013 360.867 25.1342 360.687 25.9778C360.521 26.8075 360.438 27.7202 360.438 28.7158V29.5456C360.438 30.4444 360.563 31.2741 360.812 32.0347C361.074 32.7953 361.441 33.4521 361.911 34.0053C362.395 34.5584 362.976 34.9871 363.653 35.2914C364.345 35.5956 365.126 35.7477 365.997 35.7477C367.076 35.7477 368.079 35.5403 369.005 35.1254C369.945 34.6967 370.754 34.0537 371.432 33.1963L374.336 36.3492C373.866 37.0268 373.223 37.6768 372.407 38.2991C371.605 38.9214 370.637 39.433 369.503 39.8341C368.369 40.2213 367.076 40.4149 365.624 40.4149ZM384.21 22.4515V40H378.236V17.5561H383.857L384.21 22.4515ZM390.972 17.4109L390.868 22.9493C390.578 22.9078 390.225 22.8733 389.81 22.8456C389.409 22.8041 389.043 22.7834 388.711 22.7834C387.867 22.7834 387.134 22.894 386.512 23.1153C385.904 23.3227 385.392 23.6338 384.977 24.0487C384.576 24.4635 384.272 24.9683 384.064 25.5629C383.871 26.1575 383.76 26.8352 383.733 27.5957L382.529 27.2224C382.529 25.7703 382.675 24.4359 382.965 23.219C383.255 21.9882 383.677 20.9165 384.23 20.0038C384.797 19.0911 385.489 18.3859 386.305 17.888C387.121 17.3902 388.054 17.1413 389.105 17.1413C389.437 17.1413 389.776 17.1689 390.121 17.2243C390.467 17.2657 390.751 17.328 390.972 17.4109Z" fill="white"/>
<path d="M25.0318 0.216492L46.4349 12.0918V35.8425L25.0318 47.7179L3.6287 35.8425V12.0918L25.0318 0.216492Z" fill="#065E7C"/>
</svg>
